<svg width="82" height="82" viewBox="0 0 82 82" fill="none" xmlns="http://www.w3.org/2000/svg">
<circle cx="40.775" cy="40.775" r="40.275" fill="#5856D6" stroke="#1E1E1E"/>
<path d="M7.96094 33.0859C8.64844 33.1172 9.23438 33.1406 9.71875 33.1562C10.2031 33.1719 10.6016 33.1875 10.9141 33.2031C11.2891 33.2188 11.5938 33.2344 11.8281 33.25C12.0781 33.2656 12.3906 33.2734 12.7656 33.2734C13.4062 33.2734 14.3125 33.2266 15.4844 33.1328C15.2344 33.2578 15.0391 33.3984 14.8984 33.5547C14.7578 33.6953 14.6484 33.8359 14.5703 33.9766C14.4766 34.1484 14.4062 34.3125 14.3594 34.4688C14.3281 34.6562 14.3984 34.9453 14.5703 35.3359C14.6953 35.6641 14.9219 36.1094 15.25 36.6719C15.5781 37.2344 16.0625 37.9609 16.7031 38.8516C17.4688 37.7266 18.0625 36.8438 18.4844 36.2031C18.9062 35.5625 19.2188 35.0781 19.4219 34.75C19.6562 34.3594 19.7969 34.1016 19.8438 33.9766C19.8281 33.8984 19.7656 33.7891 19.6562 33.6484C19.5625 33.5234 19.4062 33.375 19.1875 33.2031C18.9844 33.0156 18.6797 32.7891 18.2734 32.5234C18.9141 32.6172 19.4453 32.6875 19.8672 32.7344C20.3047 32.7812 20.6562 32.8125 20.9219 32.8281C21.2344 32.8438 21.4922 32.8438 21.6953 32.8281C21.8984 32.8125 22.1953 32.7969 22.5859 32.7812C22.9141 32.7656 23.3516 32.75 23.8984 32.7344C24.4609 32.7188 25.1797 32.6953 26.0547 32.6641C25.7109 32.8359 25.4141 33 25.1641 33.1562C24.9141 33.3125 24.7031 33.4531 24.5312 33.5781C24.3281 33.7344 24.1484 33.8672 23.9922 33.9766C23.8047 34.1641 23.4609 34.5469 22.9609 35.125C22.5391 35.625 21.9375 36.3594 21.1562 37.3281C20.375 38.2812 19.3281 39.5781 18.0156 41.2188C19.0781 42.3438 19.9375 43.2344 20.5938 43.8906C21.25 44.5469 21.7656 45.0469 22.1406 45.3906C22.5781 45.7969 22.8984 46.0703 23.1016 46.2109C23.2891 46.3203 23.5469 46.4609 23.875 46.6328C24.1562 46.7891 24.5234 46.9844 24.9766 47.2188C25.4297 47.4375 26.0078 47.7031 26.7109 48.0156H22.7969C22.4688 48.0156 22.0703 48.0312 21.6016 48.0625C21.1953 48.0938 20.6953 48.125 20.1016 48.1562C19.5078 48.1875 18.8125 48.2422 18.0156 48.3203C18.2969 48.1484 18.5 47.9844 18.625 47.8281C18.7656 47.6562 18.8594 47.5078 18.9062 47.3828C18.9688 47.2422 18.9766 47.1172 18.9297 47.0078C18.8516 46.8516 18.7188 46.6172 18.5312 46.3047C18.3594 46.0391 18.1172 45.6641 17.8047 45.1797C17.4922 44.6953 17.0625 44.0547 16.5156 43.2578C15.8906 43.9297 15.4062 44.4922 15.0625 44.9453C14.7344 45.3828 14.4844 45.7344 14.3125 46C14.125 46.3125 14 46.5625 13.9375 46.75C13.9375 46.9219 13.9766 47.0938 14.0547 47.2656C14.1328 47.4219 14.2578 47.5938 14.4297 47.7812C14.6172 47.9688 14.8906 48.1484 15.25 48.3203L8.3125 48.625C8.875 48.2344 9.34375 47.8828 9.71875 47.5703C10.0938 47.2422 10.3984 46.9688 10.6328 46.75C10.8984 46.4844 11.1094 46.25 11.2656 46.0469C11.4219 45.8125 11.6641 45.4688 11.9922 45.0156C12.2578 44.625 12.625 44.1016 13.0938 43.4453C13.5781 42.7891 14.1953 41.9453 14.9453 40.9141C14.1172 39.5859 13.4453 38.5312 12.9297 37.75C12.4297 36.9688 12.0234 36.3672 11.7109 35.9453C11.3516 35.4609 11.0859 35.125 10.9141 34.9375C10.7578 34.7969 10.5391 34.6406 10.2578 34.4688C10.0234 34.3125 9.71875 34.125 9.34375 33.9062C8.96875 33.6719 8.50781 33.3984 7.96094 33.0859ZM24.7656 44.2539C24.8047 44.207 24.8281 44.1211 24.8359 43.9961C24.8516 43.8633 24.8828 43.7148 24.9297 43.5508C24.9844 43.3867 25.0742 43.2148 25.1992 43.0352C25.3242 42.8555 25.5273 42.6875 25.8086 42.5312C26.082 42.375 26.3477 42.2812 26.6055 42.25C26.8633 42.2188 27.1094 42.2305 27.3438 42.2852C27.5781 42.3398 27.7969 42.4258 28 42.543C28.2109 42.6602 28.4023 42.7891 28.5742 42.9297C28.6914 43.0234 28.7852 43.1602 28.8555 43.3398C28.9258 43.5117 28.9805 43.707 29.0195 43.9258C29.0586 44.1445 29.0859 44.375 29.1016 44.6172C29.125 44.8516 29.1406 45.082 29.1484 45.3086C29.1562 45.5273 29.1602 45.7305 29.1602 45.918C29.168 46.0977 29.1836 46.2461 29.207 46.3633C29.2383 46.5352 29.293 46.6836 29.3711 46.8086C29.4492 46.9258 29.5352 47.0273 29.6289 47.1133C29.7227 47.1914 29.8164 47.2539 29.9102 47.3008C30.0039 47.3477 30.0859 47.3828 30.1562 47.4062C30.2031 47.4297 30.2461 47.4453 30.2852 47.4531C30.3633 47.4844 30.418 47.4844 30.4492 47.4531C30.4023 47.5625 30.3594 47.6562 30.3203 47.7344C30.2812 47.8125 30.25 47.8789 30.2266 47.9336C30.1953 47.9961 30.168 48.0469 30.1445 48.0859C30.1211 48.1328 30.0938 48.1758 30.0625 48.2148C30.0391 48.2539 30.0078 48.2969 29.9688 48.3438C29.9297 48.3906 29.8906 48.4414 29.8516 48.4961C29.75 48.457 29.6523 48.4102 29.5586 48.3555C29.4727 48.3008 29.3945 48.25 29.3242 48.2031C29.2383 48.1484 29.1602 48.0938 29.0898 48.0391C29.0195 47.9844 28.9531 47.9219 28.8906 47.8516C28.8359 47.7891 28.7773 47.7227 28.7148 47.6523C28.6602 47.582 28.6133 47.5039 28.5742 47.418C28.5273 47.5195 28.4141 47.6641 28.2344 47.8516C28.0625 48.0391 27.8359 48.2109 27.5547 48.3672C27.2734 48.5156 26.9453 48.6211 26.5703 48.6836C26.2031 48.7461 25.7969 48.7031 25.3516 48.5547C25.1562 48.4922 24.9727 48.4023 24.8008 48.2852C24.6289 48.1602 24.4805 48.0117 24.3555 47.8398C24.2383 47.668 24.1523 47.4727 24.0977 47.2539C24.0508 47.0273 24.0547 46.7773 24.1094 46.5039C24.1641 46.2305 24.2617 46 24.4023 45.8125C24.543 45.625 24.7109 45.4727 24.9062 45.3555C25.1016 45.2383 25.3203 45.1484 25.5625 45.0859C25.8047 45.0234 26.0547 44.9805 26.3125 44.957C26.5156 44.9492 26.7188 44.9609 26.9219 44.9922C27.0938 45.0234 27.2734 45.082 27.4609 45.168C27.6484 45.2461 27.8086 45.3672 27.9414 45.5312C27.9336 45.1172 27.918 44.7891 27.8945 44.5469C27.8789 44.2969 27.8633 44.1055 27.8477 43.9727C27.8164 43.8164 27.7891 43.707 27.7656 43.6445C27.7266 43.5898 27.6836 43.5273 27.6367 43.457C27.5977 43.3867 27.5469 43.3242 27.4844 43.2695C27.4219 43.207 27.3438 43.1562 27.25 43.1172C27.1562 43.0781 27.0469 43.0625 26.9219 43.0703C26.7891 43.0781 26.6836 43.1133 26.6055 43.1758C26.5273 43.2383 26.4648 43.3125 26.418 43.3984C26.3789 43.4766 26.3555 43.5625 26.3477 43.6562C26.3398 43.75 26.3438 43.832 26.3594 43.9023C26.375 43.9492 26.3984 44 26.4297 44.0547C26.4609 44.1016 26.5039 44.1523 26.5586 44.207C26.6133 44.2617 26.6875 44.3086 26.7812 44.3477C26.6016 44.3711 26.4414 44.3906 26.3008 44.4062C26.1602 44.4141 26.0391 44.4258 25.9375 44.4414C25.8203 44.457 25.7188 44.4688 25.6328 44.4766C25.5469 44.4844 25.4453 44.5 25.3281 44.5234C25.2266 44.5391 25.1016 44.5586 24.9531 44.582C24.8047 44.6055 24.6328 44.6367 24.4375 44.6758C24.4844 44.6211 24.5273 44.5703 24.5664 44.5234C24.6055 44.4688 24.6406 44.4219 24.6719 44.3828C24.7031 44.3359 24.7344 44.293 24.7656 44.2539ZM26.5234 45.6484C26.3828 45.6562 26.2422 45.6914 26.1016 45.7539C25.9609 45.8086 25.8359 45.8906 25.7266 46C25.6172 46.1016 25.5234 46.2227 25.4453 46.3633C25.375 46.4961 25.3398 46.6445 25.3398 46.8086C25.3398 46.9727 25.3789 47.1172 25.457 47.2422C25.543 47.3594 25.6523 47.457 25.7852 47.5352C25.9258 47.6133 26.0742 47.6602 26.2305 47.6758C26.3945 47.6914 26.5547 47.6758 26.7109 47.6289C26.8594 47.5742 27 47.4883 27.1328 47.3711C27.2656 47.2461 27.3789 47.1133 27.4727 46.9727C27.5664 46.8242 27.6328 46.6797 27.6719 46.5391C27.7109 46.3906 27.7148 46.2695 27.6836 46.1758C27.6211 45.9727 27.4805 45.832 27.2617 45.7539C27.043 45.668 26.7969 45.6328 26.5234 45.6484ZM29.5586 42.543C29.6914 42.5664 29.8281 42.5859 29.9688 42.6016C30.1016 42.6094 30.2227 42.6172 30.332 42.625C30.457 42.6328 30.5781 42.6367 30.6953 42.6367C30.8125 42.6367 30.9453 42.6328 31.0938 42.625C31.2188 42.6172 31.3672 42.6055 31.5391 42.5898C31.7188 42.5742 31.9141 42.5508 32.125 42.5195C32 42.5898 31.9023 42.6641 31.832 42.7422C31.7617 42.8203 31.707 42.8906 31.668 42.9531C31.6211 43.0312 31.5898 43.1016 31.5742 43.1641C31.5586 43.2266 31.5625 43.3555 31.5859 43.5508C31.6094 43.7461 31.6406 43.9727 31.6797 44.2305C31.7266 44.4883 31.7773 44.7578 31.832 45.0391C31.8867 45.3203 31.9414 45.5781 31.9961 45.8125C32.0586 46.0469 32.1133 46.2422 32.1602 46.3984C32.2148 46.5547 32.2578 46.6289 32.2891 46.6211C32.3203 46.6211 32.3672 46.543 32.4297 46.3867C32.5 46.2305 32.5781 46.0391 32.6641 45.8125C32.75 45.5781 32.8398 45.3242 32.9336 45.0508C33.0273 44.7695 33.1094 44.5078 33.1797 44.2656C33.25 44.0234 33.3047 43.8203 33.3438 43.6562C33.3906 43.4844 33.4102 43.3828 33.4023 43.3516C33.3789 43.3203 33.3516 43.2773 33.3203 43.2227C33.2656 43.1367 33.1445 42.9883 32.957 42.7773C33.1836 42.793 33.3789 42.8086 33.543 42.8242C33.707 42.832 33.8398 42.8438 33.9414 42.8594C34.0586 42.875 34.1523 42.8867 34.2227 42.8945C34.293 42.9023 34.3945 42.9023 34.5273 42.8945C34.6367 42.8945 34.7812 42.8906 34.9609 42.8828C35.1484 42.8672 35.3789 42.8438 35.6523 42.8125C35.4492 42.9297 35.2812 43.0352 35.1484 43.1289C35.0234 43.2148 34.9258 43.2891 34.8555 43.3516C34.7695 43.4297 34.707 43.4961 34.668 43.5508C34.6133 43.6523 34.5156 43.8945 34.375 44.2773C34.3125 44.4414 34.2344 44.6445 34.1406 44.8867C34.0547 45.1289 33.9492 45.4219 33.8242 45.7656C33.707 46.1016 33.5664 46.4961 33.4023 46.9492C33.2383 47.4023 33.0547 47.9219 32.8516 48.5078L31.7148 48.625C31.5664 48.1328 31.4453 47.7227 31.3516 47.3945C31.2656 47.0586 31.1953 46.7891 31.1406 46.5859C31.0781 46.3516 31.0312 46.168 31 46.0352C30.9609 45.8867 30.9141 45.6719 30.8594 45.3906C30.8047 45.1016 30.75 44.8086 30.6953 44.5117C30.6406 44.2148 30.5859 43.9492 30.5312 43.7148C30.4766 43.4727 30.4336 43.3242 30.4023 43.2695C30.3711 43.2305 30.3164 43.1758 30.2383 43.1055C30.1758 43.043 30.0898 42.9688 29.9805 42.8828C29.8711 42.7891 29.7305 42.6758 29.5586 42.543ZM35.0547 43.7617L37.2109 43.7852C37.0859 44.2617 36.9922 44.668 36.9297 45.0039C36.875 45.3398 36.8398 45.6211 36.8242 45.8477C36.793 46.1055 36.7852 46.3242 36.8008 46.5039C36.8242 46.668 36.8633 46.8438 36.918 47.0312C36.9648 47.1875 37.0352 47.3672 37.1289 47.5703C37.2227 47.7734 37.3477 47.9766 37.5039 48.1797C37.4102 48.1484 37.3086 48.125 37.1992 48.1094C37.0898 48.0938 36.9883 48.082 36.8945 48.0742C36.7852 48.0664 36.6758 48.0664 36.5664 48.0742C36.457 48.082 36.3359 48.0938 36.2031 48.1094C36.0938 48.125 35.9609 48.1445 35.8047 48.168C35.6484 48.1914 35.4844 48.2227 35.3125 48.2617C35.4297 47.9102 35.5195 47.6055 35.582 47.3477C35.6523 47.0898 35.7031 46.875 35.7344 46.7031C35.7656 46.5 35.7852 46.3359 35.793 46.2109C35.793 46.0547 35.793 45.8789 35.793 45.6836C35.793 45.4805 35.793 45.2852 35.793 45.0977C35.793 44.9102 35.7891 44.7461 35.7812 44.6055C35.7734 44.457 35.7578 44.3633 35.7344 44.3242L35.6172 44.207C35.5703 44.168 35.5 44.1133 35.4062 44.043C35.3203 43.9648 35.2031 43.8711 35.0547 43.7617ZM35.8867 41.957C36.0508 41.8711 36.2148 41.8477 36.3789 41.8867C36.5508 41.9258 36.6836 42 36.7773 42.1094C36.8711 42.2188 36.9023 42.3477 36.8711 42.4961C36.8477 42.6445 36.7227 42.7891 36.4961 42.9297C36.2695 43.0625 36.0703 43.1094 35.8984 43.0703C35.7266 43.0312 35.6055 42.9492 35.5352 42.8242C35.4648 42.6992 35.4531 42.5547 35.5 42.3906C35.5469 42.2188 35.6758 42.0742 35.8867 41.957ZM37.2812 31.8906C38.3281 32.0156 39.2344 32.1094 40 32.1719C40.7656 32.2188 41.3984 32.2578 41.8984 32.2891C42.4766 32.3203 42.9609 32.3281 43.3516 32.3125C43.7578 32.2969 44.3125 32.2578 45.0156 32.1953C45.6094 32.1484 46.3906 32.0859 47.3594 32.0078C48.3281 31.9141 49.5391 31.7891 50.9922 31.6328C51.0078 31.9922 51.0156 32.3438 51.0156 32.6875C51.0312 33.0156 51.0469 33.3047 51.0625 33.5547C51.0781 33.8516 51.0859 34.125 51.0859 34.375C51.0859 34.6406 51.0703 34.9766 51.0391 35.3828C51.0078 35.7266 50.9531 36.1641 50.875 36.6953C50.8125 37.2109 50.7109 37.8281 50.5703 38.5469C50.3516 37.7031 50.1406 37.0234 49.9375 36.5078C49.7344 35.9766 49.5469 35.5547 49.375 35.2422C49.1875 34.8828 49 34.6094 48.8125 34.4219C48.6094 34.2812 48.3672 34.1641 48.0859 34.0703C47.8359 33.9922 47.5156 33.9297 47.125 33.8828C46.75 33.8359 46.3047 33.8438 45.7891 33.9062C45.7109 35.9688 45.6562 37.6406 45.625 38.9219C45.5938 40.2031 45.5703 41.2031 45.5547 41.9219C45.5391 42.7812 45.5312 43.3984 45.5312 43.7734C45.5469 44.3047 45.6328 44.8281 45.7891 45.3438C45.9141 45.7812 46.1172 46.2344 46.3984 46.7031C46.6797 47.1719 47.0859 47.5859 47.6172 47.9453H44.7578C44.4922 47.9453 44.1641 47.9609 43.7734 47.9922C43.4453 48.0234 43.0234 48.0547 42.5078 48.0859C42.0078 48.1172 41.4219 48.1719 40.75 48.25C40.9844 47.8438 41.1719 47.4766 41.3125 47.1484C41.4531 46.8203 41.5625 46.5391 41.6406 46.3047C41.7344 46.0234 41.8047 45.7734 41.8516 45.5547C41.8672 45.2422 41.9062 44.6094 41.9688 43.6562C41.9844 43.2656 42 42.7812 42.0156 42.2031C42.0469 41.625 42.0781 40.9375 42.1094 40.1406C42.1562 39.3438 42.1953 38.4297 42.2266 37.3984C42.2734 36.3516 42.3203 35.1719 42.3672 33.8594C42.0859 33.7812 41.8203 33.7891 41.5703 33.8828C41.3203 33.9609 41.1016 34.0625 40.9141 34.1875C40.6953 34.3438 40.4844 34.5312 40.2812 34.75C40.0781 35.0156 39.8516 35.3594 39.6016 35.7812C39.3828 36.1406 39.1328 36.6172 38.8516 37.2109C38.5703 37.7891 38.25 38.5078 37.8906 39.3672C37.8125 38.4609 37.7578 37.7188 37.7266 37.1406C37.6953 36.5469 37.6719 36.0859 37.6562 35.7578C37.6406 35.3672 37.6328 35.0781 37.6328 34.8906C37.6328 34.7188 37.6172 34.4922 37.5859 34.2109C37.5547 33.9766 37.5156 33.6719 37.4688 33.2969C37.4219 32.9062 37.3594 32.4375 37.2812 31.8906ZM53.6055 47.1133C53.8242 47.1133 54.0273 47.0898 54.2148 47.043C54.3711 47.0039 54.5195 46.9414 54.6602 46.8555C54.8086 46.7617 54.9062 46.625 54.9531 46.4453C55.1094 46.4766 55.2422 46.5039 55.3516 46.5273C55.4609 46.543 55.5547 46.5586 55.6328 46.5742C55.7188 46.5977 55.793 46.6133 55.8555 46.6211C55.918 46.6367 55.9922 46.6523 56.0781 46.668C56.1562 46.6836 56.25 46.7031 56.3594 46.7266C56.4766 46.7422 56.6133 46.7656 56.7695 46.7969C56.6523 46.7812 56.5312 46.793 56.4062 46.832C56.2891 46.8711 56.1758 46.9141 56.0664 46.9609C55.9414 47.0156 55.8242 47.082 55.7148 47.1602C55.6445 47.207 55.5625 47.2773 55.4688 47.3711C55.3828 47.4648 55.2578 47.5547 55.0938 47.6406C54.9297 47.7266 54.7109 47.8008 54.4375 47.8633C54.1719 47.918 53.8281 47.9375 53.4062 47.9219C52.8984 47.9062 52.4727 47.8164 52.1289 47.6523C51.7852 47.4805 51.5078 47.2734 51.2969 47.0312C51.0859 46.7812 50.9336 46.5117 50.8398 46.2227C50.7461 45.9336 50.6953 45.6641 50.6875 45.4141C50.6797 45.1641 50.7539 44.9023 50.9102 44.6289C51.0664 44.3555 51.2852 44.1055 51.5664 43.8789C51.8555 43.6523 52.2031 43.4688 52.6094 43.3281C53.0156 43.1797 53.4609 43.1055 53.9453 43.1055C54.2266 43.1055 54.4844 43.1406 54.7188 43.2109C54.9609 43.2734 55.1797 43.3594 55.375 43.4688C55.5781 43.5781 55.7539 43.7031 55.9023 43.8438C56.0508 43.9766 56.1758 44.1133 56.2773 44.2539C56.3789 44.4023 56.4648 44.5586 56.5352 44.7227C56.5977 44.8633 56.6484 45.0234 56.6875 45.2031C56.7266 45.3828 56.7383 45.5664 56.7227 45.7539C56.1289 45.7695 55.6484 45.7812 55.2812 45.7891C54.9219 45.7969 54.6406 45.8008 54.4375 45.8008H53.9102H53.5117C53.3711 45.8008 53.1875 45.8047 52.9609 45.8125C52.7344 45.8203 52.457 45.832 52.1289 45.8477C52.168 46.1602 52.2656 46.4023 52.4219 46.5742C52.5859 46.7383 52.7578 46.8633 52.9375 46.9492C53.1406 47.043 53.3633 47.0977 53.6055 47.1133ZM52.5508 45.0039C52.8008 45.0195 53.0078 45.0312 53.1719 45.0391C53.3438 45.0469 53.4844 45.0547 53.5938 45.0625C53.7109 45.0703 53.8047 45.0742 53.875 45.0742H54.168C54.3633 45.0742 54.7266 45.0625 55.2578 45.0391C55.2344 44.6953 55.1602 44.4336 55.0352 44.2539C54.918 44.0742 54.793 43.9414 54.6602 43.8555C54.5039 43.7617 54.332 43.707 54.1445 43.6914C53.6367 43.6992 53.2578 43.8047 53.0078 44.0078C52.7656 44.2109 52.6133 44.543 52.5508 45.0039ZM63.7422 44.8398C63.6484 44.8242 63.5312 44.8125 63.3906 44.8047C63.2578 44.7969 63.1289 44.793 63.0039 44.793C62.8633 44.793 62.7148 44.7969 62.5586 44.8047C62.3945 44.8125 62.2305 44.8203 62.0664 44.8281C61.9258 44.8359 61.7656 44.8477 61.5859 44.8633C61.4141 44.8711 61.2461 44.8828 61.082 44.8984C61.1445 44.8672 61.1992 44.8242 61.2461 44.7695C61.3008 44.7148 61.3477 44.6602 61.3867 44.6055C61.4258 44.543 61.4609 44.4766 61.4922 44.4062C61.5312 44.2891 61.5273 44.1484 61.4805 43.9844C61.4336 43.8125 61.3477 43.6562 61.2227 43.5156C61.1055 43.375 60.9531 43.2656 60.7656 43.1875C60.5859 43.1016 60.3867 43.082 60.168 43.1289C59.9336 43.1836 59.7227 43.2656 59.5352 43.375C59.3555 43.4844 59.2031 43.6367 59.0781 43.832C58.9609 44.0195 58.875 44.2539 58.8203 44.5352C58.7734 44.8086 58.7617 45.1367 58.7852 45.5195C58.8164 45.9961 58.8945 46.375 59.0195 46.6562C59.1445 46.9375 59.2969 47.1484 59.4766 47.2891C59.6562 47.4297 59.8516 47.5156 60.0625 47.5469C60.2812 47.5703 60.4961 47.5703 60.707 47.5469C60.8555 47.5156 60.9922 47.4492 61.1172 47.3477C61.2188 47.2617 61.3125 47.1367 61.3984 46.9727C61.4844 46.8086 61.5234 46.582 61.5156 46.293L62.9453 46.2344C62.7812 46.6953 62.582 47.0625 62.3477 47.3359C62.1133 47.6016 61.8867 47.8086 61.668 47.957C61.4102 48.1289 61.1523 48.2461 60.8945 48.3086C60.5742 48.3633 60.2891 48.3867 60.0391 48.3789C59.7891 48.3633 59.5625 48.3242 59.3594 48.2617C59.1562 48.1992 58.9688 48.1211 58.7969 48.0273C58.625 47.9336 58.4609 47.832 58.3047 47.7227C58.2031 47.6523 58.0898 47.5352 57.9648 47.3711C57.8398 47.207 57.7227 47.0117 57.6133 46.7852C57.5039 46.5508 57.4141 46.293 57.3438 46.0117C57.2734 45.7305 57.2461 45.4414 57.2617 45.1445C57.2773 44.8398 57.3477 44.5352 57.4727 44.2305C57.5977 43.9258 57.7969 43.6328 58.0703 43.3516C58.4844 42.9297 58.9258 42.6562 59.3945 42.5312C59.8711 42.3984 60.3203 42.3633 60.7422 42.4258C61.1641 42.4805 61.5391 42.6016 61.8672 42.7891C62.1953 42.9766 62.4258 43.1797 62.5586 43.3984C62.6914 43.6172 62.7891 43.7852 62.8516 43.9023C62.9219 44.0117 62.9727 44.0977 63.0039 44.1602C63.043 44.2148 63.0742 44.2578 63.0977 44.2891C63.1289 44.3125 63.1719 44.3477 63.2266 44.3945C63.2656 44.4336 63.3125 44.4766 63.3672 44.5234C63.4141 44.5625 63.4688 44.6094 63.5312 44.6641C63.5938 44.7188 63.6641 44.7773 63.7422 44.8398ZM63.5078 40.1172C63.6875 40.1484 63.8516 40.1719 64 40.1875C64.1484 40.1953 64.2734 40.2031 64.375 40.2109C64.4922 40.2188 64.5938 40.2227 64.6797 40.2227C64.7969 40.2148 64.9336 40.2031 65.0898 40.1875C65.2227 40.1719 65.3828 40.1523 65.5703 40.1289C65.7656 40.1055 65.9883 40.0742 66.2383 40.0352C66.1211 40.0977 66.0234 40.1602 65.9453 40.2227C65.8672 40.2773 65.8047 40.3359 65.7578 40.3984C65.7031 40.4688 65.6602 40.5352 65.6289 40.5977C65.5898 40.6992 65.5469 40.9102 65.5 41.2305C65.4531 41.5039 65.3945 41.9102 65.3242 42.4492C65.2617 42.9883 65.1797 43.7188 65.0781 44.6406C65.3594 44.3594 65.625 44.1484 65.875 44.0078C66.1328 43.8594 66.3594 43.7539 66.5547 43.6914C66.7812 43.6211 66.9922 43.5859 67.1875 43.5859C67.4297 43.6094 67.6758 43.6875 67.9258 43.8203C68.1836 43.9453 68.4219 44.0938 68.6406 44.2656C68.8672 44.4375 69.0625 44.6211 69.2266 44.8164C69.3984 45.0117 69.5195 45.1836 69.5898 45.332C69.6367 45.4336 69.6602 45.5664 69.6602 45.7305C69.6602 45.8867 69.6445 46.0586 69.6133 46.2461C69.582 46.4336 69.5391 46.625 69.4844 46.8203C69.4297 47.0156 69.375 47.1992 69.3203 47.3711C69.2734 47.543 69.2305 47.6953 69.1914 47.8281C69.1523 47.9531 69.1289 48.043 69.1211 48.0977C69.1055 48.2148 69.1133 48.3281 69.1445 48.4375C69.168 48.5312 69.2148 48.6328 69.2852 48.7422C69.3555 48.8438 69.4609 48.9297 69.6016 49C69.4922 48.9844 69.375 48.9727 69.25 48.9648C69.1328 48.9492 69.0195 48.9375 68.9102 48.9297C68.7852 48.9219 68.6602 48.918 68.5352 48.918H68.1133C67.9805 48.918 67.8281 48.9219 67.6562 48.9297C67.4844 48.9297 67.2969 48.9336 67.0938 48.9414C67.2031 48.9023 67.2969 48.8516 67.375 48.7891C67.4531 48.7188 67.5195 48.6523 67.5742 48.5898C67.6367 48.5195 67.6914 48.4453 67.7383 48.3672C67.7695 48.3047 67.8086 48.1875 67.8555 48.0156C67.9023 47.8359 67.9453 47.6328 67.9844 47.4062C68.0234 47.1719 68.0508 46.9258 68.0664 46.668C68.0898 46.4102 68.0938 46.1641 68.0781 45.9297C68.0703 45.6875 68.0352 45.4727 67.9727 45.2852C67.918 45.0977 67.832 44.9609 67.7148 44.875C67.3633 44.6094 67.043 44.4805 66.7539 44.4883C66.4727 44.4883 66.2031 44.6016 65.9453 44.8281C65.8516 44.9141 65.7617 45 65.6758 45.0859C65.5977 45.1641 65.5117 45.2578 65.418 45.3672C65.3242 45.4688 65.2383 45.5742 65.1602 45.6836C65.1602 45.8008 65.1641 45.9297 65.1719 46.0703C65.1797 46.2109 65.1875 46.3477 65.1953 46.4805C65.2031 46.6289 65.2148 46.7773 65.2305 46.9258C65.2461 47.1523 65.2695 47.375 65.3008 47.5938C65.3242 47.7812 65.3555 47.9883 65.3945 48.2148C65.4336 48.4336 65.4844 48.6328 65.5469 48.8125C65.4453 48.7969 65.3398 48.793 65.2305 48.8008C65.1211 48.8008 65.0156 48.8008 64.9141 48.8008C64.7969 48.8086 64.6836 48.8125 64.5742 48.8125C64.4727 48.8203 64.3672 48.832 64.2578 48.8477C64.1641 48.8633 64.0625 48.8789 63.9531 48.8945C63.8438 48.9023 63.7383 48.918 63.6367 48.9414C63.7305 48.7617 63.8086 48.5859 63.8711 48.4141C63.9336 48.2344 63.9844 48.0781 64.0234 47.9453C64.0703 47.7891 64.1094 47.6367 64.1406 47.4883C64.1641 47.3711 64.1797 47.1484 64.1875 46.8203C64.2031 46.4844 64.2148 46.1016 64.2227 45.6719C64.2305 45.2344 64.2344 44.7734 64.2344 44.2891C64.2344 43.8047 64.2305 43.3438 64.2227 42.9062C64.2148 42.4688 64.1992 42.0859 64.1758 41.7578C64.1602 41.4297 64.1406 41.2031 64.1172 41.0781C64.0859 40.9531 64.043 40.8281 63.9883 40.7031C63.9414 40.5938 63.8789 40.4883 63.8008 40.3867C63.7227 40.2773 63.625 40.1875 63.5078 40.1172Z" fill="white"/>
</svg>
